#!OML:ASF H:\ManfredETheater\Project 1\Capture day 1\Session 1\subject.ASF
:FULLY-SPECIFIED
:DEGREES
93
root -7.58616 14.6593 3.64996 -12.2655 34.5353 -16.1539
lowerback 25.2293 -3.44259 9.01381
upperback 4.99594 -1.22369 6.45079
thorax -8.51514 -0.632537 2.42161
lowerneck -18.1282 7.04661 2.60148
upperneck 14.905 11.5613 -12.8502
head 8.61125 4.39079 -3.2167
rclavicle -3.75703e-014 -1.98785e-015
rhumerus -42.3307 2.02518 -88.7168
rradius 87.2117
rwrist -13.6022
rhand -25.4229 9.02883
rfingers 7.12502
rthumb 1.10309 -20.9481
lclavicle -3.75703e-014 -1.98785e-015
lhumerus -42.4363 -26.2629 109.54
lradius 99.6765
lwrist 1.21479
lhand -20.3243 -15.4594
lfingers 7.12502
lthumb 6.02675 14.4349
rfemur -20.9216 3.13645 3.84173
rtibia 48.8618
rfoot -14.2564 -9.35135
rtoes -50.3015
lfemur -50.3848 7.29504 -14.7659
ltibia 98.9788
lfoot -13.0276 -20.4834
ltoes 2.83693
94
root -7.5215 14.6051 4.06529 -13.2825 35.3467 -17.6928
lowerback 25.5447 -3.29578 9.60941
upperback 4.97297 -0.773727 6.7919
thorax -8.6949 -0.426661 2.34175
lowerneck -18.3253 6.60962 2.50662
upperneck 14.7224 10.9015 -12.5951
head 8.50505 4.10142 -3.20652
rclavicle -3.61788e-014 2.78299e-015
rhumerus -40.495 3.15536 -89.7935
rradius 88.3897
rwrist -13.4367
rhand -25.3895 9.06888
rfingers 7.12502
rthumb 1.1354 -20.9078
lclavicle -3.61788e-014 2.78299e-015
lhumerus -43.6088 -24.8403 110.24
lradius 96.6881
lwrist 0.427195
lhand -21.3489 -15.5165
lfingers 7.12502
lthumb 5.03744 14.4037
rfemur -19.5479 1.70103 5.43569
rtibia 50.0835
rfoot -16.5812 -9.55226
rtoes -51.1908
lfemur -52.2241 8.27549 -14.0069
ltibia 98.6003
lfoot -13.8797 -19.9728
ltoes 3.25543
95
root -7.44504 14.5623 4.47041 -14.1361 35.9966 -19.1841
lowerback 25.8015 -3.102 10.1982
upperback 4.92615 -0.269256 7.11547
thorax -8.86657 -0.197627 2.22485
lowerneck -18.512 6.18374 2.39458
upperneck 14.4811 10.2567 -12.3418
head 8.38053 3.82057 -3.19089
rclavicle 3.81667e-014 3.97569e-014
rhumerus -38.5339 4.61688 -90.6547
rradius 89.6248
rwrist -13.2054
rhand -25.3716 9.11993
rfingers 7.12502
rthumb 1.15266 -20.8567
lclavicle 3.81667e-014 3.97569e-014
lhumerus -44.4677 -22.8015 110.237
lradius 93.6732
lwrist 0.386864
lhand -22.4361 -15.4497
lfingers 7.12502
lthumb 3.98761 14.4927
rfemur -18.3377 0.164595 7.0006
rtibia 51.1867
rfoot -18.7087 -9.7723
rtoes -51.8036
lfemur -54.1984 9.27468 -13.6385
ltibia 97.8818
lfoot -14.6513 -19.0792
ltoes 3.68806
96
root -7.35575 14.5327 4.86646 -14.752 36.5488 -20.5037
lowerback 25.9806 -2.8582 10.6827
upperback 4.8505 0.25855 7.39165
thorax -9.02695 0.0413302 2.10126
lowerneck -18.6949 5.77061 2.27003
upperneck 14.2317 9.63284 -12.0778
head 8.2559 3.54964 -3.16562
rclavicle 4.83047e-014 7.07673e-014
rhumerus -36.5396 6.33616 -91.2443
rradius 90.9326
rwrist -12.9654
rhand -25.3719 9.28289
rfingers 7.12502
rthumb 1.15241 -20.6937
lclavicle 4.83047e-014 7.07673e-014
lhumerus -45.1127 -20.3186 109.579
lradius 90.8181
lwrist 1.09445
lhand -23.4129 -15.3647
lfingers 7.12502
lthumb 3.04432 14.5933
rfemur -17.2224 -1.37126 8.40535
rtibia 52.0523
rfoot -20.5889 -10.0709
rtoes -52.1958
lfemur -56.2289 10.1953 -13.7475
ltibia 96.802
lfoot -15.2856 -17.8631
ltoes 4.27226
97
root -7.25284 14.5166 5.25535 -15.1007 37.0897 -21.5568
lowerback 26.0805 -2.56852 10.987
upperback 4.74466 0.777499 7.59503
thorax -9.17994 0.276642 1.99548
lowerneck -18.8852 5.36651 2.13628
upperneck 14.0299 9.02802 -11.7885
head 8.1509 3.28651 -3.12691
rclavicle -3.598e-014 -6.87795e-014
rhumerus -34.6141 8.182 -91.535
rradius 92.3264
rwrist -12.7506
rhand -25.4045 9.51753
rfingers 7.12502
rthumb 1.12089 -20.4593
lclavicle -3.598e-014 -6.87795e-014
lhumerus -45.6815 -17.6149 108.37
lradius 88.3053
lwrist 2.35614
lhand -24.1696 -15.3303
lfingers 7.12502
lthumb 2.31357 14.6369
rfemur -16.0809 -2.82046 9.5437
rtibia 52.5855
rfoot -22.2283 -10.4593
rtoes -52.5216
lfemur -58.2167 10.9427 -14.3791
ltibia 95.3513
lfoot -15.7411 -16.3966
ltoes 5.01779
98
root -7.13635 14.5133 5.639 -15.2112 37.669 -22.3464
lowerback 26.1031 -2.2462 11.1055
upperback 4.60772 1.26699 7.72125
thorax -9.33073 0.499161 1.91301
lowerneck -19.0704 4.971 2.01284
upperneck 13.9034 8.44035 -11.4804
head 8.07359 3.03026 -3.08092
rclavicle 3.39922e-014 -8.38871e-014
rhumerus -32.8461 10.0139 -91.5314
rradius 93.8193
rwrist -12.637
rhand -25.4114 9.78624
rfingers 7.12502
rthumb 1.11419 -20.1906
lclavicle 3.39922e-014 -8.38871e-014
lhumerus -46.3079 -14.9238 106.733
lradius 86.2943
lwrist 3.83255
lhand -24.6402 -15.3497
lfingers 7.12502
lthumb 1.85905 14.622
rfemur -14.8317 -4.11155 10.4177
rtibia 52.7423
rfoot -23.693 -10.8723
rtoes -52.7094
lfemur -60.0796 11.4751 -15.4597
ltibia 93.5471
lfoot -16.0089 -14.8342
ltoes 5.88257
99
root -7.00636 14.5219 6.02022 -15.1695 38.3423 -22.9135
lowerback 26.0761 -1.92084 11.0574
upperback 4.4511 1.69807 7.77593
thorax -9.48324 0.696039 1.86036
lowerneck -19.2458 4.5846 1.91172
upperneck 13.8599 7.86894 -11.1626
head 8.02645 2.78042 -3.03318
rclavicle -8.07066e-014 -6.0033e-014
rhumerus -31.3128 11.6838 -91.2631
rradius 95.4001
rwrist -12.5761
rhand -25.3259 10.1062
rfingers 7.12502
rthumb 1.19682 -19.8702
lclavicle -8.07066e-014 -6.0033e-014
lhumerus -47.0902 -12.4746 104.803
lradius 84.8884
lwrist 5.1611
lhand -24.8425 -15.3862
lfingers 7.12502
lthumb 1.66372 14.5871
rfemur -13.3663 -5.21572 11.0722
rtibia 52.4886
rfoot -24.9306 -11.4159
rtoes -52.9236
lfemur -61.6956 11.7596 -16.8696
ltibia 91.4231
lfoot -16.0998 -13.3612
ltoes 6.86171
